# xmcd
#
# Track frame offsets: 
#        997
#        15326
#        32094
#        48270
#        67493
#        86243
#        98479
#        114939
#        135857
#        150496
#        171277
#        196811
#
# Disc length: 2791 seconds
#
# Revision: 0
# Processed by: cddbd v1.5.1PL0 Copyright (c) Steve Scherf et al.
# Submitted via: ExactAudioCopy v0.95a4
#
DISCID=900ada0c
DTITLE=Bobby Pinson - Man Like Me
DYEAR=2005
DGENRE=Country
TTITLE0=I'm Fine Either Way
TTITLE1=Nothin' Happens In This Town
TTITLE2=One More Believer
TTITLE3=Don't Ask Me How I Know
TTITLE4=Man Like Me
TTITLE5=Started A Band
TTITLE6=Ford Fairlane
TTITLE7=Shadows Of The Heartland
TTITLE8=Way Down
TTITLE9=I Thought That's Who I Was
TTITLE10=Time Well Spent
TTITLE11=Hidden Track
EXTD=
EXTT0=
EXTT1=
EXTT2=
EXTT3=
EXTT4=
EXTT5=
EXTT6=
EXTT7=
EXTT8=
EXTT9=
EXTT10=
EXTT11=
PLAYORDER=
